<?xml version="1.0" standalone="no"?>
<!DOCTYPE svg PUBLIC "-//W3C//DTD SVG 20010904//EN"
 "http://www.w3.org/TR/2001/REC-SVG-20010904/DTD/svg10.dtd">
<svg version="1.0" xmlns="http://www.w3.org/2000/svg"
 width="800.000000pt" height="800.000000pt" viewBox="0 0 800.000000 800.000000"
 preserveAspectRatio="xMidYMid meet">
<metadata>
Created by potrace 1.11, written by Peter Selinger 2001-2013
</metadata>
<g transform="translate(0.000000,800.000000) scale(0.100000,-0.100000)"
fill="#000000" stroke="none">
<path d="M6213 5610 c-90 -64 -509 -605 -1025 -1324 -158 -220 -183 -246 -223
-228 -31 14 -51 40 -345 457 -311 440 -306 433 -343 455 -45 28 -147 26 -147
-2 0 -6 162 -238 360 -518 198 -279 364 -519 369 -534 13 -33 2 -64 -43 -119
-18 -23 -114 -154 -213 -292 -99 -137 -261 -364 -362 -503 -100 -140 -180
-257 -177 -260 3 -3 30 -7 59 -10 41 -3 63 1 95 17 45 23 53 33 253 316 495
703 473 674 515 675 28 0 66 -44 181 -210 140 -202 493 -685 543 -742 29 -34
51 -49 76 -54 46 -8 118 12 110 31 -6 18 -405 571 -594 825 -80 107 -153 213
-163 235 -22 48 -24 94 -6 138 8 18 115 178 239 357 304 439 898 1310 898
1315 0 10 -17 3 -57 -25z"/>
<path d="M3202 4990 l-704 -5 -19 -23 c-10 -13 -21 -38 -24 -55 -3 -18 -4
-504 -3 -1080 l3 -1049 28 -24 28 -24 732 2 732 3 9 28 c6 17 6 37 0 55 l-9
27 -669 5 -668 5 -19 24 c-18 22 -19 46 -21 410 -3 508 -4 489 27 520 l25 26
611 2 c436 1 614 4 622 12 18 18 14 91 -5 105 -13 9 -155 12 -595 11 -318 -1
-595 2 -616 7 -68 16 -67 12 -68 424 0 203 0 379 0 392 1 13 14 37 30 53 l30
30 648 -1 c605 -1 648 0 660 16 7 10 13 28 13 41 0 27 -42 74 -62 71 -7 -2
-330 -5 -716 -8z"/>
<path d="M583 4978 c-26 -13 -48 -61 -38 -85 3 -10 6 -492 6 -1071 -1 -1037 0
-1053 19 -1072 20 -20 83 -27 107 -12 32 20 33 67 33 1020 -1 807 2 958 13
970 12 12 31 -9 134 -150 184 -252 233 -322 645 -933 525 -779 675 -989 922
-1294 56 -69 104 -129 108 -135 4 -6 9 -8 12 -5 3 3 -8 43 -25 90 -26 73 -114
209 -676 1049 -764 1143 -1051 1563 -1098 1608 -30 28 -41 32 -87 31 -29 0
-63 -5 -75 -11z"/>
<path d="M5988 4979 c-26 -15 -25 -85 1 -99 13 -6 146 -10 364 -10 332 0 345
-1 370 -21 15 -11 31 -38 37 -60 7 -26 11 -357 10 -1027 0 -543 -1 -992 0
-998 0 -15 45 -34 79 -34 16 0 38 8 50 18 l22 17 -1 969 c0 532 -3 972 -5 977
-13 20 9 114 31 136 l23 23 360 0 c346 0 361 1 371 19 15 30 12 66 -8 84 -17
16 -90 17 -853 17 -548 -1 -840 -4 -851 -11z"/>
<path d="M2570 2171 c0 -6 4 -13 10 -16 6 -3 7 1 4 9 -7 18 -14 21 -14 7z"/>
</g>
</svg>
